<?xml version="1.0" encoding="UTF-8" standalone="no"?>
<!-- Created with Inkscape (http://www.inkscape.org/) -->

<svg
   xmlns:dc="http://purl.org/dc/elements/1.1/"
   xmlns:cc="http://creativecommons.org/ns#"
   xmlns:rdf="http://www.w3.org/1999/02/22-rdf-syntax-ns#"
   xmlns:svg="http://www.w3.org/2000/svg"
   xmlns="http://www.w3.org/2000/svg"
   xmlns:sodipodi="http://sodipodi.sourceforge.net/DTD/sodipodi-0.dtd"
   xmlns:inkscape="http://www.inkscape.org/namespaces/inkscape"
   width="360"
   height="360"
   viewBox="0 0 359.99999 359.99998"
   id="svg2"
   version="1.1"
   inkscape:version="0.91 r13725"
   sodipodi:docname="temperature.svg"
   inkscape:export-filename="/home/mark/Development/monsternett/aiot/aiot_dashboard/apps/display/static/images/display/icon-temperature.png"
   inkscape:export-xdpi="4.5"
   inkscape:export-ydpi="4.5">
  <defs
     id="defs4">
    <filter
       inkscape:menu-tooltip="Transparent plastic with deep colors"
       inkscape:menu="Bevels"
       inkscape:label="Deep Colors Plastic"
       style="color-interpolation-filters:sRGB"
       id="filter4542">
      <feGaussianBlur
         in="SourceGraphic"
         result="result6"
         stdDeviation="10"
         id="feGaussianBlur4544" />
      <feComposite
         in2="SourceGraphic"
         in="result6"
         operator="xor"
         id="feComposite4546" />
      <feGaussianBlur
         result="result2"
         stdDeviation="10"
         id="feGaussianBlur4548" />
      <feComposite
         in2="SourceGraphic"
         operator="atop"
         result="result91"
         id="feComposite4550" />
      <feComposite
         result="result4"
         in="result2"
         operator="xor"
         in2="result91"
         id="feComposite4552" />
      <feGaussianBlur
         in="result4"
         result="result3"
         stdDeviation="5"
         id="feGaussianBlur4554" />
      <feSpecularLighting
         lighting-color="#ffffff"
         in="result3"
         result="result5"
         specularExponent="35"
         specularConstant="3"
         surfaceScale="12"
         id="feSpecularLighting4556">
        <feDistantLight
           elevation="45"
           azimuth="235"
           id="feDistantLight4558" />
      </feSpecularLighting>
      <feComposite
         in2="result5"
         in="SourceGraphic"
         k3="0.7"
         k2="0.8"
         operator="arithmetic"
         result="result7"
         id="feComposite4560"
         k1="0"
         k4="0" />
      <feComposite
         in="result7"
         operator="in"
         in2="SourceGraphic"
         id="feComposite4562" />
    </filter>
    <filter
       inkscape:menu-tooltip="Transparent plastic with deep colors"
       inkscape:menu="Bevels"
       inkscape:label="Deep Colors Plastic"
       style="color-interpolation-filters:sRGB;"
       id="filter4608">
      <feGaussianBlur
         in="SourceGraphic"
         result="result6"
         stdDeviation="10"
         id="feGaussianBlur4610" />
      <feComposite
         in2="SourceGraphic"
         in="result6"
         operator="xor"
         id="feComposite4612" />
      <feGaussianBlur
         result="result2"
         stdDeviation="10"
         id="feGaussianBlur4614" />
      <feComposite
         in2="SourceGraphic"
         operator="atop"
         result="result91"
         id="feComposite4616" />
      <feComposite
         result="result4"
         in="result2"
         operator="xor"
         in2="result91"
         id="feComposite4618" />
      <feGaussianBlur
         in="result4"
         result="result3"
         stdDeviation="5"
         id="feGaussianBlur4620" />
      <feSpecularLighting
         lighting-color="rgb(255,255,255)"
         in="result3"
         result="result5"
         specularExponent="35"
         specularConstant="3"
         surfaceScale="12"
         id="feSpecularLighting4622">
        <feDistantLight
           elevation="45"
           azimuth="235"
           id="feDistantLight4624" />
      </feSpecularLighting>
      <feComposite
         in2="result5"
         in="SourceGraphic"
         k3="0.7"
         k2="0.8"
         operator="arithmetic"
         result="result7"
         id="feComposite4626" />
      <feComposite
         in="result7"
         operator="in"
         in2="SourceGraphic"
         id="feComposite4628" />
    </filter>
  </defs>
  <sodipodi:namedview
     id="base"
     pagecolor="#ffffff"
     bordercolor="#666666"
     borderopacity="1.0"
     inkscape:pageopacity="0.0"
     inkscape:pageshadow="2"
     inkscape:zoom="0.35"
     inkscape:cx="-938.65626"
     inkscape:cy="-81.616039"
     inkscape:document-units="px"
     inkscape:current-layer="layer1"
     showgrid="false"
     fit-margin-top="0"
     fit-margin-left="0"
     fit-margin-right="0"
     fit-margin-bottom="0"
     inkscape:window-width="1920"
     inkscape:window-height="1025"
     inkscape:window-x="-3"
     inkscape:window-y="-3"
     inkscape:window-maximized="1"
     units="px" />
  <metadata
     id="metadata7">
    <rdf:RDF>
      <cc:Work
         rdf:about="">
        <dc:format>image/svg+xml</dc:format>
        <dc:type
           rdf:resource="http://purl.org/dc/dcmitype/StillImage" />
        <dc:title></dc:title>
      </cc:Work>
    </rdf:RDF>
  </metadata>
  <g
     inkscape:label="Layer 1"
     inkscape:groupmode="layer"
     id="layer1"
     transform="translate(-376.51341,-90.746153)">
    <path
       style="fill:#808080;fill-opacity:1;"
       d="m 544.06897,419.86011 c -2.78231,-0.46284 -5.85711,-1.26878 -6.83288,-1.791 -0.97577,-0.5222 -2.84697,-0.94948 -4.15824,-0.94948 -1.31127,0 -2.64863,-0.42798 -2.97193,-0.95108 -0.3233,-0.5231 -1.41853,-0.95109 -2.43385,-0.95109 -1.01533,0 -1.84605,-0.428 -1.84605,-0.9511 0,-0.5231 -0.85598,-0.95109 -1.90218,-0.95109 -1.0462,0 -1.90218,-0.42798 -1.90218,-0.95108 0,-0.5231 -0.65704,-0.95109 -1.46009,-0.95109 -1.73438,0 -6.00447,-2.59935 -8.16237,-4.9687 -0.846,-0.92891 -1.85885,-1.68893 -2.25078,-1.68893 -0.92408,0 -10.86251,-10.17373 -13.33064,-13.64626 -1.0462,-1.47195 -2.86463,-3.8186 -4.04096,-5.21477 -1.17635,-1.39618 -2.13932,-3.28747 -2.13996,-4.20289 -6.4e-4,-0.91543 -0.42915,-1.66441 -0.95225,-1.66441 -0.52309,0 -0.95109,-0.85598 -0.95109,-1.90218 0,-1.0462 -0.42799,-1.90218 -0.95109,-1.90218 -0.5231,0 -0.95109,-0.77038 -0.95109,-1.71196 0,-0.94158 -0.37971,-2.11856 -0.84382,-2.6155 -0.46409,-0.49694 -1.62817,-3.89946 -2.58684,-7.56116 -2.3313,-8.90464 -2.36693,-30.2977 -0.0609,-36.61695 0.85897,-2.35395 1.568,-5.02889 1.57561,-5.94431 0.007,-0.91543 0.44184,-1.66441 0.96494,-1.66441 0.5231,0 0.95109,-0.83072 0.95109,-1.84604 0,-1.01533 0.42798,-2.11057 0.95108,-2.43386 0.5231,-0.32329 0.95109,-1.41853 0.95109,-2.43386 0,-1.01532 0.42799,-1.84605 0.95109,-1.84605 0.5231,0 0.9511,-0.85597 0.9511,-1.90217 0,-1.0462 0.39915,-1.90219 0.88699,-1.90219 0.48785,0 1.13662,-0.7865 1.44171,-1.74777 0.3051,-0.96128 1.83192,-3.17832 3.39291,-4.92675 1.56101,-1.74843 2.83819,-3.64939 2.83819,-4.22435 0,-0.57495 0.85598,-1.66232 1.90218,-2.41638 1.86857,-1.34678 1.90217,-2.46207 1.90217,-63.10931 0,-40.92203 0.34434,-63.05821 1.02126,-65.65299 2.4495,-9.38958 4.26013,-14.85223 4.92284,-14.85223 0.39244,0 0.71351,-0.85599 0.71351,-1.90219 0,-1.0462 0.42799,-1.90217 0.95109,-1.90217 0.5231,0 0.9511,-0.64199 0.9511,-1.42663 0,-0.78465 0.42799,-1.42665 0.95109,-1.42665 0.5231,0 0.95108,-0.61875 0.95108,-1.37501 0,-1.7011 11.29995,-12.89133 13.01773,-12.89133 0.68675,0 1.24862,-0.42799 1.24862,-0.95109 0,-0.5231 0.64198,-0.95109 1.42663,-0.95109 0.78465,0 1.42664,-0.42799 1.42664,-0.95109 0,-0.5231 0.85598,-0.95109 1.90218,-0.95109 1.04619,0 1.90218,-0.37941 1.90218,-0.84314 0,-0.46373 1.17697,-1.08553 2.6155,-1.38179 1.43851,-0.29625 5.61142,-1.23818 9.27312,-2.09317 9.56296,-2.23292 23.83262,-0.67603 31.13528,3.39698 0.90832,0.50662 2.2993,0.92112 3.09104,0.92112 0.79174,0 1.43954,0.42799 1.43954,0.95109 0,0.5231 0.71297,0.95109 1.58439,0.95109 2.2991,0 16.00888,14.44723 18.00661,18.97518 0.93447,2.11804 2.04466,3.85098 2.4671,3.85098 0.42242,0 0.76805,0.83071 0.76805,1.84604 0,1.01532 0.42799,2.11057 0.95109,2.43386 0.5231,0.32329 0.95109,2.27451 0.95109,4.33603 0,2.06153 0.42799,3.74823 0.95109,3.74823 0.62475,0 0.95109,22.23416 0.95109,64.8003 0,61.21601 0.0947,64.8854 1.71332,66.3385 0.94232,0.84602 2.97054,3.25016 4.50717,5.34256 1.53662,2.0924 3.54755,4.49654 4.46876,5.34256 0.92121,0.846 1.67009,1.91598 1.6642,2.37773 -0.006,0.46173 1.45121,3.83546 3.23801,7.49715 3.89677,7.9856 5.33251,12.42104 5.33251,16.47382 0,1.66294 0.42799,3.02352 0.95109,3.02352 1.23464,0 1.2815,22.55167 0.0477,22.98467 -0.49684,0.17436 -1.0085,2.13598 -1.13705,4.35915 -0.12853,2.22318 -0.52944,4.04214 -0.8909,4.04214 -0.36145,0 -0.88787,1.17696 -1.1698,2.61549 -0.81767,4.17196 -2.95734,9.74867 -3.74037,9.74867 -0.3951,0 -0.71837,0.85598 -0.71837,1.90218 0,1.0462 -0.32351,1.90217 -0.71891,1.90217 -0.39541,0 -1.3287,1.37758 -2.07397,3.06128 -1.27372,2.87753 -2.07594,3.92959 -7.43133,9.74567 -1.17697,1.27821 -2.13995,2.79673 -2.13995,3.37448 0,0.57775 -0.428,0.78594 -0.95109,0.46265 -0.5231,-0.3233 -0.95109,-0.10398 -0.95109,0.48734 2e-5,1.36259 -2.39399,3.79256 -3.73641,3.79256 -0.56046,0 -1.01902,0.33954 -1.01902,0.75452 0,0.41499 -2.13146,2.01995 -4.73658,3.56659 -2.60511,1.54664 -4.74506,3.13306 -4.75545,3.52538 -0.0103,0.39233 -0.87485,0.71332 -1.92105,0.71332 -1.0462,0 -1.90217,0.42799 -1.90217,0.95109 0,0.5231 -1.06998,0.95108 -2.37773,0.95108 -1.30775,0 -2.37772,0.42799 -2.37772,0.95109 0,0.5231 -0.85599,0.9511 -1.90219,0.9511 -1.04619,0 -1.90217,0.37941 -1.90217,0.84314 0,0.46373 -1.17698,1.09016 -2.6155,1.39206 -16.52448,3.46809 -25.28405,4.06624 -35.25584,2.40745 z m 23.605,-30.32207 c 0,-0.5231 1.28396,-0.95109 2.85326,-0.95109 1.5693,0 2.85327,-0.42799 2.85327,-0.95109 0,-0.5231 0.65704,-0.9511 1.46009,-0.9511 1.92003,0 6.0029,-2.64607 9.14571,-5.92724 1.38685,-1.44791 2.89022,-2.63256 3.34084,-2.63256 0.45063,0 1.66988,-1.14063 2.70946,-2.53473 1.03958,-1.39411 2.42513,-3.0755 3.07901,-3.73642 0.65387,-0.66094 1.18886,-1.66026 1.18886,-2.22072 0,-0.56047 0.428,-1.01903 0.95109,-1.01903 0.5231,0 0.95109,-1.06997 0.95109,-2.37772 0,-1.30775 0.42799,-2.37773 0.95109,-2.37773 0.5231,0 0.95109,-0.77038 0.95109,-1.71195 0,-0.94159 0.37602,-2.11856 0.83561,-2.6155 2.74846,-2.97187 2.79938,-22.3192 0.0718,-27.28337 -0.49907,-0.90833 -0.90741,-2.51329 -0.90741,-3.56658 0,-1.0533 -0.42799,-1.91509 -0.95109,-1.91509 -0.5231,0 -0.9511,-0.85598 -0.9511,-1.90218 0,-1.0462 -0.42799,-1.90218 -0.95109,-1.90218 -0.52309,0 -0.95108,-0.44328 -0.95108,-0.98507 0,-1.92339 -12.27564,-14.23237 -14.19382,-14.23237 -0.64149,0 -1.05456,-23.51545 -1.23209,-70.14286 -0.24568,-64.52498 -0.40091,-70.43907 -1.93807,-73.84138 -0.91905,-2.03418 -2.52402,-4.43833 -3.56659,-5.34254 -1.04257,-0.90423 -1.89558,-2.04894 -1.89558,-2.54383 0,-0.49488 -1.49797,-1.48754 -3.32882,-2.20591 -1.83085,-0.71836 -3.32881,-1.65423 -3.32881,-2.0797 0,-0.42545 -3.63792,-0.77356 -8.08426,-0.77356 -4.75545,0 -8.08427,0.39161 -8.08427,0.95108 0,0.5231 -0.6806,0.95109 -1.51244,0.95109 -2.04218,0 -8.90384,4.93334 -8.92923,6.41986 -0.0112,0.65388 -0.4483,1.18886 -0.9714,1.18886 -0.5231,0 -0.95109,1.03431 -0.95109,2.29847 0,1.26415 -0.53499,2.47669 -1.18886,2.69451 -0.93382,0.31109 -1.24131,15.46376 -1.43331,70.6332 -0.23758,68.26057 -0.29668,70.28579 -2.10019,71.96601 -1.02065,0.95089 -2.10707,1.72889 -2.41428,1.72889 -0.96317,0 -5.22752,4.61985 -5.22752,5.6633 0,0.54688 -0.71332,0.99432 -1.58516,0.99432 -0.87183,0 -1.3076,0.27755 -0.96838,0.61677 0.33922,0.33921 -0.13547,1.30219 -1.05487,2.13995 -2.35469,2.14559 -4.9514,6.4184 -4.9514,8.14736 0,0.80305 -0.42799,1.46009 -0.95109,1.46009 -0.5231,0 -0.9511,1.28397 -0.9511,2.85326 0,1.5693 -0.42798,2.85328 -0.95108,2.85328 -0.58122,0 -0.95109,4.43842 -0.95109,11.41307 0,6.97465 0.36987,11.41308 0.95109,11.41308 0.5231,0 0.95108,1.49797 0.95108,3.32881 0,1.83085 0.428,3.32881 0.9511,3.32881 0.5231,0 0.95109,0.85599 0.95109,1.90219 0,1.04619 0.39915,1.90217 0.88699,1.90217 0.48786,0 1.16103,0.8634 1.49597,1.91867 0.79082,2.49167 12.2285,13.92934 14.72017,14.72017 1.05526,0.33493 1.91866,1.00811 1.91866,1.49596 0,0.48784 0.83072,0.88699 1.84605,0.88699 1.01532,0 2.11056,0.428 2.43385,0.9511 0.3233,0.5231 1.84652,0.95109 3.38495,0.95109 1.53842,0 2.79713,0.42799 2.79713,0.95109 0,0.58122 4.43843,0.95108 11.41308,0.95108 6.97466,0 11.41308,-0.36986 11.41308,-0.95108 z m -17.11962,-14.26635 c 0,-0.5231 -1.01607,-0.95109 -2.25793,-0.95109 -2.64336,0 -10.60267,-4.24327 -13.65765,-7.28117 -4.36323,-4.33887 -8.7755,-14.72379 -8.79843,-20.70845 -0.0186,-4.83533 2.56174,-13.02073 5.21667,-16.54885 2.44126,-3.24419 9.50778,-9.67364 10.63214,-9.67364 0.69107,0 1.25648,-0.42799 1.25648,-0.95108 0,-0.5231 1.28397,-0.9511 2.85327,-0.9511 l 2.85327,0 0,-43.78989 c 0,-40.41025 0.12845,-43.92367 1.6644,-45.52332 3.01911,-3.14432 5.70857,-4.08667 8.06464,-2.82574 4.68881,2.50938 4.53731,0.95722 4.53731,46.48664 0,45.96051 -0.0317,45.65231 4.6875,45.65231 1.08357,0 1.97012,0.428 1.97012,0.9511 0,0.52309 0.66237,0.95108 1.47193,0.95108 1.91463,0 10.89224,8.97762 10.89224,10.89224 0,0.80956 0.42799,1.47193 0.95109,1.47193 0.5231,0 0.95108,1.06997 0.95108,2.37772 0,1.30775 0.44934,2.37773 0.99853,2.37773 0.63889,0 0.93798,3.24745 0.83043,9.01691 -0.0924,4.9593 -0.54177,8.78596 -0.99852,8.50368 -0.45675,-0.28229 -0.83044,0.58199 -0.83044,1.92061 0,1.33862 -0.42798,2.43385 -0.95108,2.43385 -0.5231,0 -0.95109,0.56542 -0.95109,1.25649 0,1.10688 -6.07364,7.80866 -9.7397,10.74701 -4.37846,3.50932 -21.64626,6.83188 -21.64626,4.16503 z"
       id="path4147"
       inkscape:connector-curvature="0"
       inkscape:export-xdpi="5.1358843"
       inkscape:export-ydpi="5.1358843" />
  </g>
</svg>
